<?xml version="1.0" standalone="no"?>
<!DOCTYPE svg PUBLIC "-//W3C//DTD SVG 20010904//EN"
 "http://www.w3.org/TR/2001/REC-SVG-20010904/DTD/svg10.dtd">
<svg version="1.0" xmlns="http://www.w3.org/2000/svg"
 width="1343.000000pt" height="1343.000000pt" viewBox="0 0 1343.000000 1343.000000"
 preserveAspectRatio="xMidYMid meet">
<metadata>
Created by potrace 1.14, written by Peter Selinger 2001-2017
</metadata>
<g transform="translate(0.000000,1343.000000) scale(0.100000,-0.100000)"
fill="#000000" stroke="none">
<path d="M6265 13419 c-347 -34 -428 -43 -575 -65 -1982 -303 -3719 -1477
-4755 -3214 -489 -820 -808 -1782 -899 -2715 -34 -346 -38 -453 -33 -785 7
-502 53 -896 157 -1364 122 -547 300 -1040 561 -1556 768 -1519 2102 -2702
3706 -3284 600 -218 1228 -346 1888 -387 238 -15 750 -6 975 16 1062 103 2015
419 2895 958 1291 792 2286 2005 2804 3420 211 577 352 1233 386 1802 4 55 8
114 11 130 5 36 5 667 0 710 -2 17 -7 77 -11 135 -29 472 -128 996 -281 1492
-498 1617 -1632 3020 -3119 3858 -1014 571 -2142 864 -3310 859 -170 -1 -350
-6 -400 -10z m775 -169 c1374 -78 2649 -563 3712 -1412 1317 -1051 2176 -2551
2407 -4200 39 -279 52 -453 58 -788 9 -527 -24 -899 -123 -1405 -121 -615
-374 -1306 -674 -1840 -93 -166 -123 -217 -205 -345 -810 -1275 -2027 -2233
-3443 -2710 -2035 -685 -4281 -320 -5991 972 -1137 860 -1959 2047 -2352 3396
-292 1006 -337 2090 -128 3112 172 836 510 1641 984 2341 600 886 1387 1598
2340 2117 623 339 1391 593 2115 701 423 62 888 84 1300 61z"/>
<path d="M6405 13089 c-1965 -91 -3773 -1088 -4908 -2707 -882 -1258 -1273
-2788 -1106 -4322 84 -774 304 -1499 668 -2205 832 -1613 2329 -2804 4076
-3243 595 -150 1029 -199 1669 -189 514 8 891 53 1346 163 1357 326 2540 1065
3434 2144 745 898 1235 2017 1390 3170 44 331 51 445 51 860 0 400 -5 493 -46
810 -106 834 -410 1712 -844 2430 -608 1008 -1451 1809 -2482 2358 -833 444
-1740 689 -2708 732 -242 11 -290 11 -540 -1z m295 -564 l0 -45 -73 0 c-41 0
-108 -3 -150 -6 l-77 -7 0 -64 0 -65 139 7 138 7 6 -23 c17 -62 13 -66 -70
-73 -42 -3 -105 -6 -140 -6 l-63 0 0 -80 0 -79 155 6 155 6 0 -45 0 -45 -107
-6 c-58 -4 -152 -7 -208 -7 l-102 0 -6 173 c-4 94 -7 220 -7 279 l0 107 83 4
c45 1 137 4 205 5 l122 2 0 -45z m-616 -7 c8 -39 67 -531 64 -533 -2 -2 -26
-6 -54 -10 l-51 -7 -13 117 c-9 79 -18 119 -27 122 -7 3 -59 0 -114 -7 l-102
-13 6 -61 c4 -33 9 -89 13 -123 l7 -61 -47 -7 c-26 -4 -51 -4 -55 1 -8 9 -75
544 -69 549 2 1 26 5 54 9 l51 6 13 -110 c16 -127 1 -117 150 -96 l85 12 -1
29 c0 17 -4 67 -8 112 l-8 82 33 4 c66 8 69 7 73 -15z m1384 7 c241 -30 282
-56 282 -177 0 -82 -53 -148 -119 -148 -27 0 -34 -15 -15 -31 21 -17 56 -78
98 -172 l36 -78 -35 6 c-19 3 -50 7 -67 10 -31 5 -37 14 -90 118 -58 114 -77
134 -135 147 -39 9 -37 13 -54 -127 l-12 -102 -51 6 c-28 3 -52 7 -54 8 -3 2
56 499 63 533 6 26 -4 26 153 7z m-2013 -130 l7 -41 -71 -18 c-39 -10 -73 -22
-76 -26 -2 -4 23 -103 56 -219 33 -117 58 -218 56 -225 -6 -16 -87 -40 -97
-29 -5 4 -34 101 -66 215 -31 114 -60 212 -64 217 -4 7 -29 4 -75 -9 -39 -11
-75 -20 -81 -20 -10 0 -25 47 -25 77 0 11 414 131 423 124 4 -3 10 -24 13 -46z
m2748 -16 c100 -28 186 -55 190 -59 5 -4 3 -25 -3 -47 l-12 -40 -117 34 c-188
54 -177 55 -195 -8 -9 -29 -16 -56 -16 -60 0 -3 61 -24 135 -45 108 -30 134
-41 131 -53 -3 -9 -8 -28 -12 -43 -3 -16 -10 -28 -16 -28 -5 0 -65 16 -134 36
-69 20 -127 34 -128 32 -7 -8 -48 -140 -44 -143 2 -2 68 -22 148 -45 79 -22
145 -42 147 -44 7 -6 -17 -86 -25 -86 -10 0 -396 112 -401 116 -2 2 24 99 58
216 89 312 91 318 102 318 6 0 93 -23 192 -51z m481 -153 c152 -57 180 -72
214 -110 28 -32 32 -44 32 -94 0 -68 -29 -125 -79 -159 -46 -31 -116 -30 -206
3 -38 13 -74 26 -79 27 -6 1 -20 -25 -32 -58 -12 -33 -29 -77 -37 -98 l-16
-37 -43 16 c-24 10 -46 20 -51 24 -4 3 33 112 83 241 105 273 108 279 116 279
3 0 47 -15 98 -34z m-4186 -113 c5 -16 13 -35 16 -44 5 -12 -5 -21 -46 -38
-48 -20 -189 -83 -196 -86 -2 -2 47 -117 53 -123 1 -2 49 18 105 43 56 25 105
45 109 45 3 0 14 -18 23 -41 l17 -40 -47 -20 c-121 -52 -162 -72 -162 -82 0
-5 20 -55 45 -110 25 -55 44 -101 42 -103 -12 -12 -93 -42 -99 -36 -8 8 -229
505 -225 507 8 6 343 154 349 155 3 0 11 -12 16 -27z m4697 -105 c25 -12 45
-26 45 -30 0 -5 -38 -85 -85 -178 -99 -198 -104 -225 -51 -275 19 -18 49 -35
66 -39 62 -12 78 6 177 198 51 98 95 181 98 184 3 3 27 -5 54 -18 l50 -23 -94
-181 c-52 -100 -109 -197 -127 -218 -62 -68 -164 -61 -283 18 -64 42 -89 84
-90 150 0 45 12 75 95 243 52 105 95 191 97 191 1 0 23 -10 48 -22z m-5209
-216 c119 -61 200 -223 174 -347 -16 -76 -71 -144 -147 -181 -48 -24 -71 -29
-133 -29 -87 0 -115 12 -178 76 -65 66 -96 138 -101 231 -3 68 0 82 24 127 67
123 244 183 361 123z m5857 -154 c62 -40 122 -80 134 -88 30 -22 63 -81 63
-113 0 -69 -61 -137 -123 -137 l-27 0 20 -37 c25 -47 25 -74 0 -123 -43 -84
-130 -111 -218 -66 -42 21 -256 149 -270 162 -6 4 291 474 299 474 5 0 59 -33
122 -72z m-2818 22 c1087 -79 2078 -492 2895 -1205 1429 -1247 2012 -3185
1510 -5010 -260 -941 -822 -1814 -1580 -2451 -1217 -1022 -2841 -1393 -4376
-999 -332 85 -604 185 -909 334 -531 259 -931 545 -1350 965 -803 805 -1279
1795 -1411 2936 -22 187 -30 667 -15 871 72 979 427 1901 1028 2669 53 69 104
133 113 142 8 9 40 46 70 81 78 93 387 397 505 498 704 602 1570 997 2475
1128 115 17 232 29 425 44 99 8 493 6 620 -3z m3298 -361 c20 -17 37 -34 37
-39 0 -8 -106 -136 -241 -292 -27 -31 -49 -59 -49 -61 0 -3 47 -45 105 -93 58
-49 105 -91 105 -94 0 -3 -13 -19 -28 -37 l-27 -32 -148 124 c-81 68 -148 127
-149 131 -1 7 345 424 352 424 3 0 22 -14 43 -31z m-7242 -156 c169 -195 233
-269 258 -296 l26 -28 -40 -35 c-28 -24 -47 -33 -65 -30 -14 2 -106 29 -204
60 -99 31 -181 54 -184 52 -2 -2 49 -64 112 -136 64 -72 116 -135 115 -138 0
-4 -16 -20 -36 -37 l-35 -29 -47 50 c-25 28 -108 124 -185 214 l-139 163 39
33 c22 18 43 33 48 34 8 0 98 -29 379 -120 15 -5 27 -6 27 -2 0 7 -45 60 -169
201 -31 34 -57 67 -59 72 -3 8 57 68 69 69 3 0 44 -44 90 -97z m7665 -218 l22
-20 -84 -90 c-47 -50 -133 -143 -191 -207 -58 -65 -107 -118 -108 -118 -2 0
-21 17 -44 38 l-41 38 192 207 c213 229 186 213 254 152z m-8098 -246 c83 -41
157 -122 178 -196 30 -102 4 -191 -78 -270 -116 -112 -255 -111 -379 5 -79 72
-112 137 -112 217 1 74 20 122 76 182 88 96 202 119 315 62z m8350 -23 c112
-57 170 -189 128 -291 -8 -19 -20 -35 -26 -35 -6 0 -29 12 -51 27 -29 19 -38
31 -33 42 4 9 9 35 12 57 3 35 -1 47 -28 77 -68 77 -161 65 -256 -35 -75 -78
-91 -135 -54 -195 29 -48 62 -66 112 -61 24 3 51 8 61 12 14 7 21 0 37 -35 11
-24 20 -49 20 -55 0 -18 -85 -37 -139 -32 -63 6 -135 56 -176 123 -26 43 -30
57 -30 124 0 64 4 83 27 122 48 82 145 160 221 180 50 13 121 2 175 -25z
m-8785 -508 c84 -61 184 -134 222 -161 39 -27 72 -51 73 -53 2 -1 -11 -23 -30
-47 l-34 -45 -71 52 c-38 28 -130 94 -204 147 -74 53 -144 105 -157 115 l-23
19 31 43 c18 23 34 42 36 42 3 0 73 -50 157 -112z m-230 -142 c-4 -6 -24 -35
-45 -65 -21 -30 -38 -57 -38 -61 0 -4 87 -63 193 -130 105 -68 194 -125 196
-126 9 -8 -55 -94 -67 -89 -8 3 -89 54 -180 113 -92 60 -176 114 -188 120 -19
10 -25 5 -65 -58 l-44 -68 -28 16 c-16 9 -33 22 -38 28 -7 8 29 71 112 197
l121 186 39 -26 c23 -15 36 -30 32 -37z m9601 -188 c92 -27 186 -167 186 -276
0 -170 -220 -321 -396 -273 -56 15 -127 80 -159 144 -81 166 -11 313 185 394
62 25 123 29 184 11z m-9697 -404 l262 -28 -26 -46 c-14 -25 -29 -48 -32 -52
-4 -4 -37 -4 -73 0 l-67 8 -50 -97 c-28 -53 -51 -99 -51 -103 0 -4 20 -28 44
-54 l44 -47 -27 -53 -27 -53 -184 213 c-101 117 -190 220 -197 230 -12 14 -11
23 12 68 l27 52 41 -5 c23 -3 160 -18 304 -33z m10120 -296 l80 -173 -41 -22
-41 -22 -22 47 c-12 26 -38 82 -58 124 l-35 78 -57 -26 c-31 -13 -59 -27 -62
-29 -2 -3 17 -49 42 -104 43 -90 54 -121 43 -121 -2 0 -20 -7 -40 -15 l-36
-15 -49 105 c-27 58 -53 105 -58 105 -4 -1 -53 -22 -108 -49 l-100 -48 -24 48
c-14 27 -23 51 -20 53 6 6 492 235 500 236 4 0 42 -78 86 -172z m-10357 -223
c107 -43 196 -79 198 -80 6 -5 -35 -100 -43 -100 -13 0 -498 195 -508 205 -4
4 1 28 12 53 l20 47 63 -24 c35 -13 151 -59 258 -101z m-274 -191 c-3 -9 -6
-32 -6 -52 0 -35 -2 -38 -47 -52 -66 -21 -97 -66 -90 -134 4 -41 11 -55 39
-82 45 -40 139 -77 203 -78 65 -1 101 22 127 80 23 54 15 91 -32 139 l-30 31
31 42 c17 23 34 42 39 42 13 0 80 -79 90 -106 17 -44 11 -145 -11 -194 -66
-147 -222 -187 -397 -102 -66 32 -139 110 -148 158 -10 54 0 155 20 196 35 73
114 127 185 128 26 0 32 -3 27 -16z m10825 -405 c115 -35 190 -177 165 -314
-7 -35 -77 -125 -97 -125 -5 0 -20 22 -33 49 l-25 49 21 18 c90 81 27 224
-100 224 -56 0 -166 -36 -201 -66 -41 -34 -55 -89 -38 -140 17 -47 51 -74 106
-81 31 -4 41 -9 37 -20 -4 -8 -6 -32 -6 -54 0 -37 -1 -39 -32 -39 -42 1 -106
30 -140 65 -36 35 -68 123 -68 183 0 54 29 124 68 165 74 78 235 118 343 86z
m-10798 -257 c107 -53 155 -138 143 -255 -17 -168 -136 -270 -295 -254 -183
20 -285 112 -284 257 0 128 46 214 143 263 50 26 62 28 141 25 73 -3 97 -9
152 -36z m11040 -394 c4 -28 5 -53 4 -54 -1 -1 -49 -9 -106 -17 -56 -9 -105
-18 -108 -21 -5 -5 25 -208 32 -214 2 -3 49 1 105 8 55 7 103 10 106 7 8 -8
24 -91 18 -96 -4 -4 -514 -80 -541 -81 -8 0 -34 93 -29 107 1 1 55 9 121 18
66 10 121 18 122 19 3 2 -27 219 -30 223 -2 1 -58 -5 -124 -15 l-121 -19 -7
54 c-4 30 -5 56 -3 57 2 2 111 17 243 35 132 18 247 34 255 35 52 12 57 8 63
-46z m-11377 -285 c-3 -21 -6 -46 -6 -55 0 -10 -6 -18 -14 -18 -7 0 -25 -9
-39 -20 -46 -37 -46 -157 0 -175 40 -15 68 22 107 142 34 102 85 153 163 160
65 6 130 -27 160 -82 28 -49 31 -167 8 -236 -27 -77 -93 -129 -165 -129 -31 0
-31 0 -28 51 3 49 5 52 38 63 71 23 105 131 60 189 -53 67 -95 42 -140 -85
-26 -75 -41 -101 -77 -135 -39 -39 -48 -43 -94 -43 -99 0 -158 67 -159 180 0
134 66 230 159 230 33 0 34 0 27 -37z m11438 -345 c3 -13 6 -37 6 -54 l0 -32
-247 -6 c-137 -4 -265 -9 -285 -11 l-38 -5 0 55 c0 30 1 56 3 56 8 4 287 16
408 17 144 2 147 2 153 -20z m-11149 -221 c53 -30 84 -88 92 -169 8 -90 -15
-167 -63 -206 -33 -28 -109 -60 -118 -51 -3 2 -7 27 -11 54 l-6 50 39 18 c47
21 67 55 65 110 -3 65 -49 115 -96 103 -28 -7 -42 -37 -72 -157 -30 -118 -75
-162 -166 -163 -51 0 -94 25 -125 71 -26 41 -32 179 -9 238 19 51 65 91 113
101 l32 7 0 -56 c0 -52 -2 -58 -29 -71 -30 -16 -41 -40 -41 -93 0 -45 16 -80
39 -88 36 -11 60 12 76 73 46 170 59 197 119 233 43 26 111 24 161 -4z m11155
-84 l0 -58 -180 -103 c-99 -57 -182 -108 -185 -113 -4 -5 46 -9 122 -9 70 0
152 -3 181 -6 l52 -7 0 -50 0 -50 -67 6 c-38 4 -164 7 -280 7 l-213 0 0 55 c0
46 4 57 23 69 12 7 93 55 180 106 86 51 157 97 157 101 0 5 -79 9 -175 9
l-175 0 0 50 0 50 280 0 280 0 0 -57z m-11046 -479 l6 -50 -60 -29 c-68 -33
-66 -24 -47 -170 l12 -90 67 -14 67 -14 7 -54 c3 -30 4 -56 2 -58 -2 -3 -133
28 -291 68 -249 62 -288 75 -292 92 -2 11 -6 38 -9 60 l-5 40 262 145 c153 85
265 141 268 135 4 -5 9 -33 13 -61z m10731 -145 c227 -123 261 -144 259 -163
-14 -101 -9 -94 -82 -115 -77 -23 -495 -131 -505 -131 -9 0 -9 47 -1 88 5 24
13 31 37 36 17 3 47 11 68 16 l36 10 6 67 c4 38 9 88 13 113 l6 45 -61 30
c-50 25 -61 34 -56 50 2 11 5 37 5 58 0 20 3 37 6 37 4 0 125 -63 269 -141z
m-221 -684 c89 -23 188 -80 266 -152 65 -60 68 -65 60 -95 -13 -43 -17 -45
-48 -17 -153 139 -394 216 -597 190 -38 -4 -71 -7 -73 -6 -9 8 13 57 30 66 57
30 268 38 362 14z m-10678 -260 l161 -41 112 37 c78 26 113 34 116 26 2 -7 8
-27 14 -46 6 -19 11 -37 11 -42 0 -4 -50 -24 -111 -44 l-110 -37 -76 -92 c-41
-50 -97 -117 -123 -149 l-48 -57 -18 52 c-9 29 -19 58 -21 64 -2 6 35 53 82
105 47 51 85 96 85 99 0 3 -51 16 -112 29 -62 13 -120 27 -129 31 -8 5 -21 28
-28 50 -7 23 -15 49 -18 57 -6 16 -25 20 213 -42z m10946 -131 c-3 -20 -123
-396 -129 -403 -6 -9 -83 23 -83 34 0 7 9 38 20 70 24 71 25 81 3 88 -85 24
-410 131 -415 136 -11 10 18 96 33 99 8 1 108 -29 224 -68 115 -38 212 -67
216 -62 4 4 16 39 28 79 l22 71 42 -12 c33 -10 41 -17 39 -32z m-10472 -381
c-38 -63 -70 -123 -70 -134 0 -11 6 -35 14 -54 l15 -34 108 49 108 49 23 -51
c12 -28 21 -51 20 -52 -2 -1 -34 -16 -73 -33 -38 -17 -144 -65 -235 -106 -91
-41 -174 -77 -186 -81 -18 -5 -26 7 -72 111 -87 197 -96 237 -67 293 30 58
110 97 175 84 18 -4 49 -23 70 -43 l37 -36 11 40 c6 22 39 84 73 138 l63 98
28 -62 28 -62 -70 -114z m10206 -317 l-23 -51 -194 2 c-107 1 -244 5 -306 9
l-111 6 24 51 24 52 70 0 71 0 46 104 47 104 -47 41 c-26 23 -47 46 -47 53 0
6 9 33 20 59 l21 48 214 -214 213 -213 -22 -51z m-9906 -53 l23 -42 -29 -36
c-62 -78 -62 -70 -1 -175 30 -52 58 -94 63 -93 5 1 36 4 69 8 l60 7 28 -51
c16 -28 24 -51 20 -51 -5 0 -60 -7 -123 -15 -63 -9 -182 -25 -265 -36 -82 -11
-162 -22 -177 -25 -24 -5 -30 0 -57 47 l-29 52 165 206 c190 236 214 264 224
254 3 -5 16 -27 29 -50z m9470 -205 c118 -66 219 -123 223 -128 7 -6 -22 -80
-38 -98 -3 -3 -474 255 -488 268 -4 3 4 28 19 53 23 43 28 46 47 35 12 -6 119
-65 237 -130z m-162 -249 c142 -56 260 -103 265 -106 6 -4 -49 -93 -58 -93 -6
0 -207 83 -279 115 -32 14 -63 24 -68 23 -5 -2 23 -42 63 -88 39 -47 94 -111
121 -142 26 -31 48 -62 48 -70 0 -7 -16 -34 -35 -60 l-35 -47 -67 25 c-38 14
-120 45 -183 69 -63 24 -116 43 -117 41 -4 -4 14 -25 134 -153 133 -143 127
-131 95 -181 -15 -23 -30 -42 -33 -42 -4 0 -64 66 -135 147 -71 81 -147 167
-169 192 -87 99 -82 84 -46 140 30 47 34 49 59 40 154 -59 375 -139 378 -137
1 2 -58 75 -132 163 -73 88 -134 164 -134 168 0 11 59 97 66 97 4 0 121 -45
262 -101z m-8968 -95 c10 -18 5 -41 -30 -140 -37 -105 -40 -123 -31 -155 6
-20 19 -43 28 -51 17 -15 25 -11 108 53 l90 68 32 -37 c18 -20 33 -42 33 -47
0 -6 -57 -53 -127 -105 -71 -52 -170 -127 -220 -167 l-93 -73 -77 100 c-95
122 -143 205 -143 245 0 80 95 162 174 152 22 -3 52 -15 67 -26 37 -28 39 -27
39 14 0 28 16 81 76 244 3 10 13 5 34 -20 16 -19 34 -44 40 -55z m8494 -563
l126 -265 -37 -40 c-21 -22 -39 -42 -40 -45 -1 -2 -48 15 -105 37 -96 38 -251
98 -395 153 -35 13 -63 26 -63 29 1 3 18 24 38 48 l38 42 63 -27 64 -28 78 84
78 84 -30 59 -30 59 37 45 c21 25 40 41 44 37 4 -4 64 -127 134 -272z m-8107
70 c41 -25 252 -244 253 -262 0 -3 -15 -18 -32 -34 -18 -16 -96 -87 -173 -159
-77 -71 -154 -143 -171 -159 l-31 -28 -51 53 c-155 163 -192 214 -192 266 0
73 60 132 135 132 l47 0 -7 31 c-27 122 115 224 222 160z m7614 -363 c45 -51
103 -115 128 -143 26 -27 71 -78 101 -113 l54 -63 -37 -37 -37 -36 -62 17
c-35 9 -129 37 -210 61 -82 24 -148 41 -148 37 0 -3 54 -64 120 -136 66 -71
120 -133 120 -136 0 -3 -17 -20 -38 -37 l-39 -30 -109 120 c-60 66 -144 159
-186 206 l-77 87 39 39 39 40 200 -59 c111 -32 203 -56 205 -54 4 4 -89 113
-180 211 -24 26 -44 50 -44 54 0 13 53 64 66 64 7 0 50 -42 95 -92z m-7249
-162 c-181 -211 -276 -316 -287 -316 -6 0 -26 15 -44 34 l-34 35 61 70 c33 38
116 133 183 209 l123 140 43 -35 42 -35 -87 -102z m318 -97 c83 -66 150 -122
150 -125 0 -3 -83 -108 -279 -348 -31 -39 -59 -74 -62 -79 -6 -9 -88 51 -89
64 0 7 62 86 199 253 45 55 81 103 81 107 0 4 -35 36 -77 70 -43 34 -90 73
-105 87 l-27 25 26 33 c14 19 27 34 30 34 2 0 71 -54 153 -121z m6331 32 c48
-188 170 -355 340 -462 38 -24 69 -47 69 -50 0 -4 -11 -14 -24 -23 -22 -14
-29 -14 -66 -1 -23 8 -70 31 -103 52 -157 95 -258 258 -287 458 -9 66 -8 71
13 87 12 10 26 16 31 15 5 -2 17 -36 27 -76z m-3013 -1075 c40 -21 97 -79 112
-116 10 -24 21 -31 65 -40 63 -13 106 -40 149 -93 26 -32 31 -48 34 -105 4
-76 -7 -112 -57 -180 -30 -40 -32 -51 -34 -126 -2 -70 -6 -88 -28 -122 -59
-89 -200 -126 -297 -77 -40 19 -47 20 -77 7 -19 -8 -67 -14 -107 -14 -86 0
-145 25 -186 78 -24 32 -27 45 -31 130 -3 93 -4 96 -42 144 -82 104 -78 211
10 300 39 39 56 48 110 59 54 12 65 18 78 44 38 73 67 98 153 129 26 10 116
-2 148 -18z"/>
<path d="M7416 12428 c-3 -7 -7 -41 -11 -75 l-6 -61 58 -8 c142 -18 183 -4
183 62 0 47 -34 70 -117 78 -38 4 -76 10 -86 12 -9 3 -19 -1 -21 -8z"/>
<path d="M8643 12122 c-3 -9 -14 -39 -25 -65 -10 -26 -18 -54 -18 -62 0 -16
98 -55 140 -55 55 0 96 70 66 115 -18 27 -31 36 -105 65 -49 19 -52 19 -58 2z"/>
<path d="M3805 11702 c-23 -11 -53 -34 -68 -51 -55 -66 -23 -200 65 -275 53
-46 102 -54 161 -28 105 47 120 171 34 283 -63 83 -121 104 -192 71z"/>
<path d="M9741 11541 c-12 -22 -25 -42 -31 -46 -24 -15 -5 -37 67 -80 82 -48
104 -50 136 -13 40 47 18 77 -111 154 l-41 25 -20 -40z"/>
<path d="M9607 11331 c-20 -32 -37 -62 -37 -68 0 -22 144 -103 184 -103 33 0
66 36 66 73 0 34 -31 65 -117 118 l-59 37 -37 -57z"/>
<path d="M6420 11390 c-1356 -74 -2620 -758 -3449 -1867 -108 -145 -240 -346
-319 -485 -24 -43 -47 -78 -53 -78 -5 0 -9 -8 -9 -17 0 -9 -20 -55 -44 -102
-272 -527 -446 -1153 -496 -1775 -13 -165 -13 -566 0 -721 62 -725 272 -1399
625 -2004 41 -71 75 -139 75 -151 0 -12 8 -24 18 -26 9 -3 35 -33 57 -67 123
-189 343 -461 538 -663 679 -704 1576 -1181 2530 -1344 289 -50 453 -63 767
-64 304 0 445 9 710 50 1138 175 2163 769 2903 1686 92 113 213 279 256 351
13 20 31 42 42 47 10 6 19 17 19 26 0 8 32 69 71 137 559 956 765 2077 584
3160 -181 1076 -721 2046 -1543 2768 -556 489 -1231 841 -1945 1014 -451 109
-881 149 -1337 125z m318 -110 c97 -43 222 -196 321 -396 70 -140 175 -407
164 -418 -3 -3 2 -26 11 -52 20 -58 20 -70 2 -55 -7 6 -51 21 -96 32 -64 16
-104 20 -174 17 -146 -7 -213 -54 -210 -148 2 -49 37 -140 55 -140 6 0 8 -3 5
-8 -2 -4 13 -16 34 -26 21 -10 36 -24 34 -30 -3 -6 -24 -25 -48 -42 -25 -19
-54 -54 -71 -87 -26 -50 -27 -56 -13 -70 9 -9 19 -13 22 -9 4 3 4 -1 1 -10 -9
-23 25 -54 72 -67 50 -14 425 -14 456 0 48 22 67 89 40 142 -7 15 -20 27 -28
27 -8 0 -15 9 -15 20 0 27 -16 25 -25 -2 -8 -22 -8 -22 -12 5 -5 33 -10 33
-33 5 -13 -17 -30 -22 -70 -24 -63 -3 -91 4 -66 18 9 5 21 6 28 2 7 -5 8 -3 4
5 -5 8 -3 11 5 9 16 -3 130 68 142 88 5 8 12 12 18 9 5 -4 9 1 9 10 0 9 5 15
12 13 14 -5 36 -86 78 -293 17 -82 35 -158 41 -168 5 -9 12 -38 16 -64 l6 -46
-45 7 c-60 9 -288 -11 -358 -31 -129 -37 -232 -96 -326 -189 l-52 -52 -32 36
c-38 43 -142 122 -195 149 -129 66 -341 99 -542 86 -81 -5 -93 -4 -93 10 0 9
16 94 36 189 151 739 348 1245 568 1463 111 110 208 136 324 85z m262 -16
c259 -69 498 -219 746 -468 121 -122 274 -300 274 -320 0 -7 110 -167 120
-176 15 -12 123 -197 184 -315 122 -236 221 -470 317 -754 53 -156 57 -172 36
-159 -12 9 -49 30 -82 48 -33 18 -96 57 -140 85 -104 68 -209 124 -315 168
-102 43 -437 134 -527 143 -58 6 -64 9 -69 33 -3 14 -11 53 -19 86 -31 126
-55 249 -50 253 3 3 5 -3 5 -13 0 -10 3 -15 6 -12 4 4 14 -1 23 -11 32 -36 97
-79 145 -97 47 -17 92 -17 232 -1 55 6 194 118 194 155 0 6 5 11 10 11 6 0 10
17 11 38 0 30 2 33 9 17 5 -11 9 -15 9 -9 2 21 -48 129 -58 126 -6 -1 -10 1
-9 5 4 20 -17 44 -58 68 -51 30 -74 63 -53 76 8 5 19 9 25 9 7 0 26 13 43 29
28 27 31 35 29 79 -2 38 -6 48 -17 44 -9 -4 -12 -1 -7 7 5 8 1 14 -13 18 -12
3 -21 10 -21 15 0 5 -6 8 -12 7 -7 -1 -26 3 -42 10 -16 6 -35 10 -43 7 -15 -6
-18 -46 -2 -46 5 0 8 -4 5 -9 -4 -5 -86 -10 -183 -11 -97 0 -179 -3 -181 -5
-6 -6 -7 -257 -1 -277 3 -9 13 -25 22 -36 26 -29 21 -37 -40 -65 l-56 -25 -34
131 c-18 73 -47 177 -63 231 -17 55 -30 106 -30 113 0 8 -25 82 -56 166 -100
270 -213 478 -326 602 -57 63 -61 61 62 29z m-731 -96 c-165 -217 -348 -681
-458 -1163 -18 -77 -35 -147 -38 -155 -4 -8 -5 -21 -4 -27 1 -7 -3 -13 -9 -13
-6 0 -8 -5 -4 -12 5 -7 3 -8 -5 -4 -7 5 -10 14 -7 21 2 7 -1 18 -7 25 -9 10
-9 11 1 6 16 -9 15 -6 -4 33 -9 18 -21 30 -28 28 -8 -3 -10 44 -8 177 2 99 0
195 -3 213 -8 45 -52 95 -76 88 -11 -4 -19 -2 -19 4 0 6 -18 11 -40 11 -29 0
-42 -5 -50 -20 -20 -37 -103 -63 -114 -35 -7 20 -45 19 -53 -2 -4 -9 3 -33 16
-55 14 -25 17 -38 9 -38 -6 0 3 -11 22 -25 19 -14 44 -25 55 -25 37 0 47 -36
43 -165 l-3 -120 -32 -20 c-40 -25 -41 -35 -5 -36 l27 -1 -25 -8 -25 -8 23 -7
c13 -4 22 -15 22 -27 0 -29 55 -47 151 -47 112 -1 118 0 112 16 -4 9 0 11 11
7 10 -4 14 -13 12 -23 -3 -9 -12 -59 -21 -111 -24 -147 -19 -137 -72 -145 -68
-10 -408 -108 -478 -138 -73 -31 -263 -134 -287 -154 -21 -19 -220 -134 -224
-130 -5 4 59 196 110 333 212 569 485 1028 805 1358 182 186 336 303 516 392
68 34 208 90 232 94 2 0 -29 -42 -68 -92z m1208 26 c382 -115 728 -300 1068
-571 149 -118 438 -409 566 -570 189 -237 352 -486 492 -753 58 -109 157 -322
157 -335 0 -3 -198 -5 -440 -5 -388 0 -445 2 -473 16 -18 9 -33 17 -34 18 -1
1 -23 69 -48 151 -139 447 -356 916 -582 1257 -124 187 -229 316 -382 468
-143 142 -230 212 -377 305 -48 30 -83 55 -77 55 7 0 65 -16 130 -36z m-1545
-21 c-221 -131 -484 -386 -682 -663 -261 -363 -493 -850 -659 -1376 l-41 -130
-45 -22 c-45 -22 -53 -22 -450 -22 -276 0 -405 3 -405 10 0 20 165 353 235
475 90 158 218 354 312 479 385 513 870 914 1373 1137 104 46 391 149 415 149
5 0 -18 -17 -53 -37z m-512 -86 c-350 -177 -606 -363 -896 -652 -275 -274
-463 -517 -678 -878 -78 -132 -206 -380 -266 -519 l-34 -78 -49 0 c-50 0 -51
1 -129 81 -71 73 -168 215 -168 246 0 10 -32 13 -130 13 l-130 0 0 -170 0
-170 -110 0 c-60 0 -110 3 -110 7 0 25 199 335 320 499 177 239 473 557 695
746 448 382 957 672 1500 857 137 46 313 99 335 100 8 1 -60 -36 -150 -82z
m2676 -13 c855 -284 1626 -840 2183 -1573 121 -160 281 -403 335 -508 l17 -33
-113 0 -113 0 0 167 0 168 -126 3 -126 3 -49 -88 c-51 -91 -196 -253 -226
-253 -10 0 -31 35 -58 98 -23 53 -71 153 -106 222 -414 818 -1007 1443 -1703
1797 -57 29 -99 53 -93 53 6 0 86 -25 178 -56z m-1032 -818 c11 1 27 -1 35 -6
11 -6 6 -8 -18 -5 -18 2 -30 1 -26 -3 3 -4 14 -7 23 -7 9 0 16 -5 15 -12 -2
-7 3 -10 11 -7 11 4 13 0 9 -16 -3 -11 -8 -19 -11 -16 -2 3 -14 0 -26 -6 -19
-10 -20 -10 -7 6 8 9 10 16 5 15 -19 -3 -29 1 -18 9 6 4 4 13 -8 25 -17 16
-18 16 -19 0 0 -15 -2 -15 -8 2 -10 25 -3 39 12 27 7 -5 21 -8 31 -6z m710
-178 c-5 -10 -4 -10 6 -2 9 9 19 8 40 -4 56 -32 57 -82 5 -137 -26 -28 -39
-35 -65 -33 -22 2 -35 9 -38 20 -2 9 -12 20 -22 23 -10 3 -24 13 -32 22 -11
14 -11 16 2 9 8 -4 6 0 -4 8 -15 12 -16 16 -5 16 8 1 3 7 -11 15 -15 9 -19 14
-10 15 13 0 13 1 0 10 -8 5 -12 10 -7 10 4 0 9 0 12 0 3 0 22 9 42 20 43 23
98 28 87 8z m-169 -38 c-3 -5 -12 -10 -18 -10 -7 0 -6 4 3 10 19 12 23 12 15
0z m-131 -115 c3 -8 1 -15 -4 -15 -6 0 -10 7 -10 15 0 8 2 15 4 15 2 0 6 -7
10 -15z m-1233 -711 c151 -44 264 -144 292 -257 7 -26 12 -242 14 -564 l3
-523 -190 0 c-187 0 -190 0 -190 -21 0 -12 12 -30 26 -42 29 -22 58 -82 48
-98 -3 -5 0 -17 7 -25 10 -12 10 -15 -1 -12 -19 4 -44 -74 -36 -107 4 -14 16
-35 27 -46 20 -20 20 -27 17 -557 -3 -415 -7 -544 -17 -567 -7 -16 -14 -41
-16 -53 -3 -30 -35 -74 -63 -87 -32 -14 -29 -53 4 -57 22 -2 27 -9 30 -37 6
-51 33 -123 55 -147 11 -12 36 -26 57 -32 48 -15 231 -20 236 -7 3 6 5 -173 5
-397 l1 -407 -58 34 c-134 80 -294 118 -497 119 -210 0 -373 -26 -640 -106
-137 -41 -369 -149 -435 -202 -8 -7 -60 -39 -115 -71 -55 -32 -107 -64 -115
-71 -33 -27 -232 -126 -340 -168 -231 -90 -462 -111 -650 -60 -151 41 -232 88
-341 196 -71 70 -103 110 -129 163 -19 39 -38 72 -42 73 -5 2 -8 847 -8 1879
l0 1875 58 -47 c170 -138 312 -209 477 -238 156 -27 183 -29 303 -17 229 22
439 91 672 221 94 52 326 195 364 224 57 44 227 122 356 163 126 41 302 78
440 93 108 11 328 2 391 -17z m-3301 -894 l0 -550 -345 0 -345 0 6 28 c65 280
193 635 334 929 l69 143 140 0 141 0 0 -550z m1220 534 c-31 -9 -122 -17 -210
-20 -133 -4 -165 -2 -225 15 l-70 19 280 0 c264 0 277 -1 225 -14z m5470 -2
c-62 -22 -360 -22 -440 0 -53 15 -46 16 215 16 261 0 268 -1 225 -16z m1130
-134 c129 -272 233 -554 308 -835 l30 -113 -349 0 -349 0 0 233 c0 129 3 376
7 550 l6 317 137 0 137 0 73 -152z m-4485 -918 c10 -11 16 -20 13 -20 -3 0
-13 9 -23 20 -10 11 -16 20 -13 20 3 0 13 -9 23 -20z m-3335 -640 l0 -520
-405 0 -405 0 0 149 c0 164 12 346 35 521 15 111 50 316 61 353 5 16 31 17
360 17 l354 0 0 -520z m8199 408 c45 -237 81 -601 81 -824 l0 -104 -411 2
-411 3 1 160 c0 88 1 321 1 518 l0 357 359 0 359 0 21 -112z m-8199 -1608 l0
-590 -309 0 -309 0 -31 113 c-83 303 -138 631 -157 955 l-7 112 407 0 406 0 0
-590z m8273 508 c-9 -165 -34 -385 -63 -552 -26 -154 -97 -461 -120 -522 l-10
-24 -315 0 -315 0 0 483 c0 266 3 532 7 590 l6 107 408 0 407 0 -5 -82z
m-8271 -1703 l3 -515 -57 0 -57 0 -71 123 c-139 238 -287 557 -379 820 l-30
87 294 0 295 0 2 -515z m8048 505 c0 -16 -93 -265 -144 -385 -58 -134 -215
-441 -282 -550 l-50 -80 -71 -3 -72 -3 10 33 c5 19 9 243 9 515 l0 483 300 0
c194 0 300 -4 300 -10z m-4795 -251 c111 -20 230 -86 277 -151 l23 -33 -38 22
c-125 74 -336 111 -557 98 -151 -9 -253 -27 -435 -76 -257 -70 -369 -122 -680
-314 -343 -212 -533 -287 -795 -314 -208 -22 -480 68 -615 202 -27 28 -39 43
-25 35 76 -45 142 -79 200 -102 86 -34 272 -66 379 -66 181 1 398 52 594 142
109 50 449 247 558 323 112 80 339 163 554 205 82 16 168 31 190 33 93 9 316
6 370 -4z m1460 -23 c326 -70 391 -99 895 -400 237 -142 450 -226 665 -261
238 -39 512 8 700 121 l60 36 -48 -50 c-54 -55 -188 -131 -278 -156 -88 -26
-224 -45 -282 -40 -172 15 -342 59 -482 124 -83 38 -320 172 -435 245 -220
141 -328 189 -590 262 -240 66 -408 88 -604 78 -148 -7 -252 -31 -348 -79 -79
-39 -78 -25 1 42 54 46 115 76 201 98 87 22 403 11 545 -20z m-1436 -351 c93
-22 194 -79 246 -138 36 -41 62 -87 50 -87 -1 0 -22 11 -47 25 -125 70 -236
93 -468 100 -121 3 -170 -1 -295 -21 -175 -30 -281 -55 -374 -90 -36 -14 -85
-32 -109 -39 -45 -14 -293 -146 -327 -175 -42 -34 -318 -193 -427 -245 -62
-29 -167 -70 -233 -91 -120 -38 -120 -38 -300 -38 -161 0 -188 2 -255 23 -118
36 -223 102 -327 206 -51 51 -93 97 -93 102 0 6 46 -20 103 -58 154 -103 362
-169 538 -169 227 0 433 52 674 170 149 73 386 212 466 272 53 41 207 114 331
159 103 37 346 93 443 102 113 11 344 6 404 -8z m1456 -20 c231 -47 438 -125
576 -218 37 -25 104 -67 150 -93 46 -27 116 -69 155 -94 101 -66 352 -178 474
-212 207 -58 414 -74 550 -43 177 41 284 88 418 181 34 24 62 39 62 34 0 -20
-148 -165 -215 -210 -142 -96 -213 -118 -405 -126 -282 -13 -487 56 -883 297
-315 191 -374 223 -507 272 -143 54 -265 84 -490 121 -157 26 -435 11 -558
-30 -40 -13 -100 -38 -133 -55 l-61 -30 23 42 c46 81 161 158 277 185 98 23
409 11 567 -21z m-4667 -531 c59 -119 221 -305 332 -381 161 -110 387 -176
595 -175 l120 0 82 -112 c174 -237 441 -517 668 -700 173 -139 419 -297 609
-391 93 -47 165 -85 159 -85 -24 0 -294 82 -408 123 -804 293 -1493 786 -2023
1448 -102 127 -242 320 -242 333 0 3 17 6 38 6 37 0 39 -2 70 -66z m2662 57
c0 -19 71 -405 99 -541 136 -648 330 -1158 533 -1402 22 -27 37 -48 35 -48
-18 0 -164 58 -232 93 -455 227 -862 713 -1180 1408 l-84 184 25 21 c37 31
267 167 344 205 140 68 214 87 343 88 64 1 117 -3 117 -8z m763 -32 c51 -44
87 -103 97 -159 6 -34 7 -35 45 -30 62 7 136 6 177 -3 l37 -8 12 43 c16 60 53
120 100 162 l39 36 280 0 c154 0 280 -3 280 -6 0 -18 -45 -270 -76 -429 -171
-867 -422 -1448 -684 -1586 -61 -31 -158 -32 -216 -2 -288 152 -570 860 -734
1843 -11 69 -23 137 -26 153 l-6 27 314 0 313 0 48 -41z m1523 15 c43 -15 99
-35 124 -46 42 -18 372 -212 413 -242 17 -13 14 -23 -48 -163 -383 -864 -933
-1422 -1525 -1548 l-35 -8 52 56 c177 187 347 580 484 1117 42 164 126 572
155 753 l17 107 142 0 c128 0 151 -3 221 -26z m2479 -1 c-10 -16 -52 -75 -94
-133 -483 -668 -1147 -1202 -1897 -1524 -141 -60 -492 -186 -518 -186 -6 0 39
26 99 58 152 80 192 104 330 196 334 225 678 557 932 901 l67 91 81 1 c242 3
514 119 685 292 68 69 205 263 216 306 6 23 11 25 61 25 l55 0 -17 -27z
m-5645 -390 c43 -107 186 -397 250 -508 79 -138 195 -311 290 -435 150 -194
440 -461 603 -555 26 -15 46 -29 44 -32 -7 -6 -261 81 -359 123 -235 100 -525
276 -743 451 -209 166 -455 421 -643 662 l-82 105 71 18 c103 27 312 112 426
174 54 29 103 53 109 53 6 1 21 -25 34 -56z m4030 -66 c146 -64 302 -115 377
-125 l54 -7 -65 -86 c-411 -541 -931 -944 -1503 -1165 -105 -40 -310 -104
-337 -104 -5 0 21 19 60 42 311 187 620 517 869 928 101 167 243 449 306 608
l9 23 53 -30 c28 -16 108 -54 177 -84z"/>
<path d="M6146 10395 c-50 -18 -104 -62 -128 -105 -19 -34 -20 -95 -4 -167 8
-39 37 -84 48 -77 7 4 8 3 4 -5 -4 -6 0 -14 8 -17 9 -3 14 -9 12 -13 -3 -4 17
-19 44 -34 37 -21 66 -29 122 -32 78 -5 84 -11 46 -52 -31 -33 -115 -70 -190
-84 -88 -16 -94 -48 -8 -40 8 1 4 -5 -10 -13 -22 -13 -21 -20 1 -18 13 2 4
-33 -10 -39 -7 -3 13 -13 45 -23 56 -17 63 -17 124 -1 127 32 286 159 340 271
50 102 26 274 -47 349 -62 63 -109 94 -135 87 -4 -1 -26 5 -49 13 -52 19 -161
19 -213 0z m183 -147 c11 -11 12 -10 6 1 -4 7 6 3 24 -10 30 -22 42 -49 21
-49 -5 0 -10 -6 -10 -14 0 -28 -46 -70 -79 -72 -17 -1 -29 2 -26 6 3 5 -4 12
-16 15 -11 4 -18 9 -15 12 3 4 1 12 -6 20 -9 11 -8 13 3 11 9 -2 15 7 17 27 6
54 50 82 81 53z"/>
<path d="M5322 7908 c-5 -7 -26 -65 -46 -128 -20 -63 -59 -182 -85 -265 -27
-82 -108 -332 -181 -555 -145 -445 -209 -597 -286 -678 -53 -55 -57 -79 -13
-84 l31 -3 1 -65 c0 -51 6 -73 25 -102 31 -48 77 -62 193 -56 75 3 92 8 121
30 39 30 58 80 58 155 0 48 -17 103 -33 103 -5 0 -6 4 -2 10 3 5 7 46 10 92 2
46 9 99 15 118 5 19 10 47 10 62 0 63 123 112 203 81 84 -33 97 -48 97 -113 0
-15 3 -20 8 -13 5 8 11 3 19 -13 9 -20 9 -23 -1 -15 -10 8 -10 1 -2 -35 9 -39
12 -42 17 -22 6 20 7 18 10 -12 3 -52 -1 -83 -14 -100 -11 -13 -10 -13 6 -1 9
7 17 20 17 29 0 8 3 12 7 9 11 -12 -20 -58 -49 -73 -35 -18 -39 -61 -6 -66 11
-2 22 -10 24 -18 2 -16 19 -56 33 -80 5 -8 17 -33 27 -54 34 -69 63 -78 248
-74 160 3 161 3 199 32 20 15 37 37 37 47 0 11 5 19 10 19 6 0 10 30 10 69 0
57 -4 75 -25 106 -15 20 -24 40 -21 43 3 3 1 11 -5 18 -11 13 -72 178 -94 254
-20 68 -154 479 -172 525 -9 22 -19 54 -23 70 -5 17 -32 95 -60 175 -28 80
-58 168 -66 195 -41 148 -75 201 -121 192 -29 -5 -36 4 -57 73 -23 73 -47 130
-56 130 -4 0 -12 -6 -18 -12z m-161 -871 c-10 -9 -11 -8 -5 6 3 10 9 15 12 12
3 -3 0 -11 -7 -18z"/>
<path d="M3420 7851 c0 -10 16 -35 35 -55 19 -21 33 -41 30 -46 -3 -5 -1 -12
5 -15 8 -5 7 -12 -2 -23 -8 -9 -8 -13 -2 -9 7 4 14 0 18 -8 3 -8 0 -17 -6 -21
-7 -4 -8 -3 -4 4 11 18 0 14 -15 -5 -10 -11 -10 -14 -1 -9 8 5 12 1 12 -11 0
-15 2 -16 10 -3 5 8 10 10 10 4 0 -17 -12 -25 -25 -14 -9 7 -12 -2 -13 -35 -2
-33 4 -54 20 -76 l23 -31 0 -476 c0 -264 -4 -486 -9 -497 -5 -11 -10 -33 -11
-50 -6 -88 -42 -182 -81 -213 -43 -34 -45 -62 -6 -62 23 0 28 -5 30 -27 3 -47
25 -116 46 -150 34 -52 58 -54 496 -51 384 3 396 4 436 25 49 26 101 83 122
132 31 76 78 344 68 387 -13 49 -39 66 -95 63 -38 -3 -50 -1 -46 9 2 7 7 34
11 60 3 26 10 67 15 91 8 34 7 46 -3 53 -25 15 -33 7 -70 -65 -98 -189 -239
-356 -343 -403 -68 -32 -95 -29 -109 11 -5 18 -11 242 -13 545 -4 461 -3 525
13 610 20 105 19 165 -2 216 -13 32 -46 59 -57 48 -3 -3 -8 0 -13 7 -4 7 -3
10 4 5 6 -4 10 1 9 13 -1 15 -5 17 -13 10 -9 -7 -12 -5 -10 7 2 10 8 20 14 22
7 2 12 15 12 28 l0 24 -245 0 c-232 0 -245 -1 -245 -19z"/>
<path d="M2450 10588 c-51 -26 -90 -84 -90 -136 0 -67 77 -165 156 -198 134
-56 264 80 199 207 -27 51 -101 116 -153 133 -58 20 -59 20 -112 -6z"/>
<path d="M11435 9700 c-69 -27 -130 -89 -144 -147 -11 -41 -10 -50 11 -92 46
-92 125 -114 233 -63 130 62 172 175 98 262 -52 62 -109 74 -198 40z"/>
<path d="M1640 9328 c0 -5 30 -41 67 -81 37 -40 68 -73 69 -75 1 -2 18 27 39
63 20 37 35 68 32 71 -9 9 -207 30 -207 22z"/>
<path d="M1143 7951 c-81 -38 -108 -154 -53 -229 49 -67 208 -98 282 -55 76
44 102 144 55 214 -47 72 -200 110 -284 70z"/>
<path d="M1158 6024 c-49 -24 -88 -48 -88 -52 0 -4 37 -16 83 -25 45 -10 92
-20 105 -24 23 -6 23 -4 17 43 -10 77 -16 104 -23 103 -4 0 -46 -20 -94 -45z"/>
<path d="M12116 5987 c-3 -12 -8 -48 -11 -80 -6 -54 -5 -58 12 -53 10 3 57 15
106 27 48 12 87 24 87 28 0 4 -43 28 -95 54 -93 46 -95 46 -99 24z"/>
<path d="M1479 4555 c-39 -21 -42 -50 -13 -120 14 -33 30 -73 36 -88 11 -30
15 -30 94 4 24 11 44 26 44 34 0 23 -56 139 -79 163 -25 25 -45 27 -82 7z"/>
<path d="M11662 4449 c-22 -48 -28 -71 -19 -74 29 -9 209 -16 206 -8 -2 5 -38
41 -80 81 l-76 72 -31 -71z"/>
<path d="M1866 3949 c-37 -45 -66 -82 -64 -84 6 -4 196 30 203 37 7 6 -55 128
-66 128 -3 0 -36 -37 -73 -81z"/>
<path d="M2111 3429 c-12 -13 -21 -33 -21 -45 0 -18 103 -174 116 -174 2 0 28
19 58 42 62 48 62 42 -11 133 -41 51 -54 60 -85 63 -27 2 -41 -2 -57 -19z"/>
<path d="M10737 3075 c-45 -49 -47 -54 -30 -64 32 -17 175 -72 179 -69 4 5
-90 188 -96 187 -3 -1 -27 -25 -53 -54z"/>
<path d="M2697 3110 c-53 -42 -44 -77 46 -175 l56 -60 56 55 56 56 -75 72
c-41 40 -83 72 -94 72 -10 0 -31 -9 -45 -20z"/>
<path d="M2532 2930 c-40 -38 -28 -69 67 -173 l35 -38 47 47 48 47 -51 56
c-76 84 -107 97 -146 61z"/>
</g>
</svg>
